# xmcd CD database file
#
# Track frame offsets:
#	150
#	34236
#	80899
#	107192
#	133974
#	169030
#	197933
#
# Disc length: 3095 seconds
#
# Revision: 0
# Processed by: cddbd v1.5.2PL0 Copyright (c) Steve Scherf et al.
# Submitted via: CDex 1.70beta2
#
DISCID=670c1507
DTITLE=Grant Green - Nigeria+2
DYEAR=1962
DGENRE=Jazz
TTITLE0=Airegin
TTITLE1=It Ain't Necessarily So
TTITLE2=I Concentrate On You
TTITLE3=The Things We Did Last Summer
TTITLE4=The Song Is You
TTITLE5=Nancy(With The Laughing Face)
TTITLE6=Airegin(Alternate Take)
EXTD=YEAR: 1962
EXTT0=
EXTT1=
EXTT2=
EXTT3=
EXTT4=
EXTT5=
EXTT6=
PLAYORDER=
